<svg viewBox="0 0 1008 311" fill="#fff" xmlns="http://www.w3.org/2000/svg"><path d="M344.213 310.48c40.618 0 70.301-20.286 79.674-50.455l-29.682-8.323c-7.811 20.807-25.907 31.21-49.992 31.21-36.061 0-60.927-23.277-62.359-66.06h145.158v-13.004c0-74.382-44.264-99.869-85.923-99.869-54.158 0-90.089 42.652-90.089 104.031 0 61.378 35.411 102.47 93.213 102.47zm-62.359-120.156c2.083-31.079 24.085-58.777 59.235-58.777 33.328 0 54.678 24.967 54.678 58.777H281.854zM532.593 311c34.89 0 53.116-18.726 59.365-31.729h1.562v27.048h30.724V174.72c0-63.459-48.43-70.741-73.946-70.741-30.203 0-64.572 10.403-80.195 46.814l29.162 10.403c6.77-14.565 22.783-30.169 52.074-30.169 28.251 0 42.181 14.954 42.181 40.572v1.04c0 14.825-15.102 13.524-51.554 18.206-37.103 4.811-77.591 13.003-77.591 58.777 0 39.011 30.203 61.378 68.218 61.378zm4.686-27.568c-24.475 0-42.18-10.923-42.18-32.25 0-23.407 21.351-30.689 45.305-33.81 13.018-1.56 47.908-5.201 53.116-11.443v28.088c0 24.968-19.788 49.415-56.241 49.415zM755.829 310.48c38.536 0 51.554-23.927 58.324-34.85h3.645v30.689h29.682V40h-30.723v98.309h-2.604c-6.77-10.403-18.747-34.33-57.803-34.33-50.512 0-85.402 40.052-85.402 102.99 0 63.459 34.89 103.511 84.881 103.511zm4.166-27.568c-38.535 0-58.323-33.81-58.323-76.463 0-42.132 19.268-74.902 58.323-74.902 37.494 0 57.282 30.169 57.282 74.902 0 45.253-20.309 76.463-57.282 76.463zM908.017 306.319h30.724V179.921c0-27.048 21.35-46.814 50.512-46.814 8.202 0 16.667 1.561 18.747 2.081v-31.209c-3.52-.26-11.587-.52-16.143-.52-23.954 0-44.784 13.524-52.075 33.29h-2.083V106.58h-29.682v199.739zM49.397 0H0v29.737h49.397V0zM49.397 34.693H0v18.172h49.397V34.693zM0 57.821v208.156h49.397V57.821H0zM0 270.933v18.172h49.397v-18.172H0zM0 294.061v13.217h49.397v-13.217H0zM156.2 179.877c38.016-13.621 55.8-45.312 55.8-85.653C212 39.91 179.777 0 108.172 0H60.923v33.008h46.055c49.527 0 68.622 24.306 68.622 61.216 0 27.712-10.764 47.305-36.839 55.348l17.439 30.305zM55.984 132.162l42.779-24.78 14.819 25.753-42.78 24.78-14.818-25.753zM73.273 162.207l42.779-24.78 9.056 15.737-42.78 24.781-9.055-15.738zM138.312 275.232l-53.513-92.995 42.779-24.781 53.514 92.996-42.78 24.78zM149.838 295.262l-9.056-15.737 42.78-24.781 9.056 15.738-42.78 24.78zM158.895 311l-6.587-11.446 42.78-24.78 6.586 11.446L158.895 311z" /></svg>